<svg width="2406" height="2208" viewBox="0 0 2406 2208" fill="none" xmlns="http://www.w3.org/2000/svg">
<path d="M2066.46 2114.57H340.063C203.854 2114.57 93.4346 2004.16 93.4346 1867.95V758.116C93.4346 621.907 203.854 511.487 340.063 511.487H2066.46C2202.68 511.487 2313.09 621.907 2313.09 758.116V1867.95C2313.09 2004.16 2202.68 2114.57 2066.46 2114.57Z" stroke="black" stroke-width="184.972"/>
<path d="M1758.18 1374.69C1724.13 1374.69 1696.52 1347.08 1696.52 1313.03C1696.52 1278.98 1724.13 1251.37 1758.18 1251.37C1792.23 1251.37 1819.84 1278.98 1819.84 1313.03C1819.84 1347.08 1792.23 1374.69 1758.18 1374.69Z" fill="black" stroke="black" stroke-width="184.972" stroke-linecap="round" stroke-linejoin="round"/>
<path d="M1943.15 511.538V339.295C1943.15 177.252 1789.55 59.2414 1632.98 100.993L276.516 462.716C168.554 491.506 93.4346 589.282 93.4346 701.017V758.166" stroke="black" stroke-width="184.972"/>
</svg>
